<svg width="64" height="64" viewBox="0 0 64 64" fill="none" xmlns="http://www.w3.org/2000/svg">
<path d="M52.5716 22.857C52.5969 19.1851 51.639 15.5733 49.7971 12.3966C47.9553 9.2199 45.2967 6.59411 42.0974 4.79183C38.8981 2.98955 35.2746 2.07647 31.6033 2.14739C27.932 2.21832 24.3465 3.27065 21.2192 5.19516C18.0919 7.11966 15.5367 9.84617 13.8189 13.0916C12.1011 16.3371 11.2834 19.9832 11.4505 23.6514C11.6177 27.3197 12.7637 30.8763 14.7695 33.9521C16.7753 37.0278 19.5679 39.5107 22.8573 41.1428V47.9999C22.8573 48.6061 23.0981 49.1875 23.5268 49.6161C23.9554 50.0448 24.5368 50.2856 25.143 50.2856H38.8573C39.4635 50.2856 40.0449 50.0448 40.4735 49.6161C40.9022 49.1875 41.143 48.6061 41.143 47.9999V41.1428C44.56 39.4592 47.4398 36.8561 49.4588 33.6258C51.4777 30.3956 52.5556 26.6663 52.5716 22.857V22.857Z" stroke="#020202" stroke-width="3" stroke-linecap="round" stroke-linejoin="round"/>
<path d="M22.8574 61.7141H41.1431" stroke="#020202" stroke-width="3" stroke-linecap="round" stroke-linejoin="round"/>
</svg>
