<svg width="60" height="60" viewBox="0 0 60 60" fill="none" xmlns="http://www.w3.org/2000/svg">
<path d="M24.5093 11.7783L26.8149 5.57606C27.2038 4.52595 27.8879 3.6227 28.7777 2.9846C29.6675 2.34651 30.7215 2.00332 31.8016 2H36.1984C37.2785 2.00332 38.3325 2.34651 39.2223 2.9846C40.1121 3.6227 40.7962 4.52595 41.1851 5.57606L43.4907 11.7783L51.3192 16.4719L57.6464 15.4661C58.6999 15.3171 59.7722 15.4978 60.7269 15.9853C61.6817 16.4728 62.4758 17.2451 63.0083 18.204L65.1531 22.1154C65.7027 23.0895 65.956 24.2145 65.8794 25.3417C65.8028 26.469 65.4 27.5456 64.7242 28.4293L60.8099 33.6258V43.013L64.8314 48.2094C65.5072 49.0932 65.91 50.1698 65.9866 51.297C66.0632 52.4243 65.81 53.5492 65.2604 54.5234L63.1156 58.4347C62.583 59.3937 61.7889 60.1659 60.8342 60.6534C59.8794 61.141 58.8071 61.3217 57.7536 61.1727L51.4265 60.1669L43.598 64.8605L41.2923 71.0627C40.9035 72.1128 40.2193 73.0161 39.3296 73.6542C38.4398 74.2923 37.3858 74.6354 36.3057 74.6388H31.8016C30.7215 74.6354 29.6675 74.2923 28.7777 73.6542C27.8879 73.0161 27.2038 72.1128 26.8149 71.0627L24.5093 64.8605L16.6808 60.1669L10.3536 61.1727C9.3001 61.3217 8.22783 61.141 7.27308 60.6534C6.31834 60.1659 5.52422 59.3937 4.99165 58.4347L2.84686 54.5234C2.29726 53.5492 2.04405 52.4243 2.12063 51.297C2.19721 50.1698 2.59999 49.0932 3.27582 48.2094L7.19007 43.013V33.6258L3.16858 28.4293C2.49275 27.5456 2.08997 26.469 2.01339 25.3417C1.93681 24.2145 2.19002 23.0895 2.73962 22.1154L4.88441 18.204C5.41699 17.2451 6.2111 16.4728 7.16584 15.9853C8.12059 15.4978 9.19286 15.3171 10.2464 15.4661L16.5735 16.4719L24.5093 11.7783Z" stroke="#020202" stroke-width="3" stroke-linecap="round" stroke-linejoin="round"/>
<path d="M34 55.0822C42.8841 55.0822 50.086 47.5773 50.086 38.3194C50.086 29.0616 42.8841 21.5566 34 21.5566C25.116 21.5566 17.9141 29.0616 17.9141 38.3194C17.9141 47.5773 25.116 55.0822 34 55.0822Z" stroke="#020202" stroke-width="3" stroke-linecap="round" stroke-linejoin="round"/>
<path d="M34.0005 21.5566V38.3194H50.0864" stroke="#020202" stroke-width="3" stroke-linecap="round" stroke-linejoin="round"/>
<path d="M33.9997 38.3193L22.6323 50.165" stroke="#020202" stroke-width="3" stroke-linecap="round" stroke-linejoin="round"/>
</svg>
