<svg width="64" height="64" viewBox="0 0 64 64" fill="none" xmlns="http://www.w3.org/2000/svg">
<g clip-path="url(#clip0_547_70)">
<path d="M31.9999 61.7142C48.4107 61.7142 61.7142 48.4107 61.7142 31.9999C61.7142 15.5892 48.4107 2.28564 31.9999 2.28564C15.5892 2.28564 2.28564 15.5892 2.28564 31.9999C2.28564 48.4107 15.5892 61.7142 31.9999 61.7142Z" stroke="#020202" stroke-width="3" stroke-linecap="round" stroke-linejoin="round"/>
<path d="M4.57129 43.4286H12.5713C14.693 43.4286 16.7279 42.5857 18.2281 41.0854C19.7284 39.5851 20.5713 37.5503 20.5713 35.4286V28.5714C20.5713 26.4497 21.4141 24.4149 22.9144 22.9146C24.4147 21.4143 26.4496 20.5714 28.5713 20.5714C30.693 20.5714 32.7279 19.7286 34.2281 18.2283C35.7284 16.728 36.5713 14.6932 36.5713 12.5714V2.60571" stroke="#020202" stroke-width="3" stroke-linecap="round" stroke-linejoin="round"/>
<path d="M61.7141 31.5427C59.4253 30.3551 56.887 29.7283 54.3084 29.7141H44.5713C42.4496 29.7141 40.4147 30.557 38.9144 32.0573C37.4141 33.5575 36.5713 35.5924 36.5713 37.7141C36.5713 39.8358 37.4141 41.8707 38.9144 43.371C40.4147 44.8713 42.4496 45.7141 44.5713 45.7141C46.0868 45.7141 47.5403 46.3161 48.6119 47.3878C49.6835 48.4594 50.2856 49.9129 50.2856 51.4284V55.4055" stroke="#020202" stroke-width="3" stroke-linecap="round" stroke-linejoin="round"/>
</g>
<defs>
<clipPath id="clip0_547_70">
<rect width="64" height="64" fill="white"/>
</clipPath>
</defs>
</svg>
